<svg xmlns="http://www.w3.org/2000/svg" viewBox="0 0 127 127" width="100" height="100">
  <defs>
    <style>
      .discord-icon { fill: currentColor; }
    </style>
  </defs>
  <path class="discord-icon" d="M107.7,8.07A105.15,105.15,0,0,0,81.47,0a72.06,72.06,0,0,0-3.36,6.83A99.68,99.68,0,0,0,49,6.83,72.37,72.37,0,0,0,45.64.25C25.94,5.171,18.73,15.472,14.76,25.57c-6.584,11.745-13.618,23.927-13.776,35.857.002,1.3.023,2.6.052,3.899,10.919,8.572,21.446,17.873,31.approached,26.522,9.585-1.465,19.073-4.404,28.205-8.236,4.564-1.925,8.968-4.384,13.202-7.352.276-.184.561-.368.847-.555 10.973-7.41,21.9-14.88,32.65-21.257a37.16,37.16,0,0,0,.52-4.59c1.086-8.545,1.146-17.42-.6-25.864ZM42.45,65.69c-1.356,0-2.494,1.301-2.494,2.914,0,1.6,1.076,2.905,2.494,2.905,1.393,0,2.467-1.301,2.494-2.905C44.917,66.991,43.843,65.69,42.45,65.69Zm30.738,0c-1.356,0-2.494,1.301-2.494,2.914,0,1.6,1.076,2.905,2.494,2.905,1.393,0,2.467-1.301,2.494-2.905.027-1.613,1.101-2.914-1.394-2.914Z"/>
</svg>