<svg xmlns="http://www.w3.org/2000/svg" viewBox="0 0 24 24" width="100" height="100">
  <path fill="currentColor" d="M12,2A10,10 0 0,1 22,12A10,10 0 0,1 12,22A10,10 0 0,1 2,12A10,10 0 0,1 12,2M7.07,18.28C7.5,19.17 8.47,20 10.5,20C12.82,20 14.8,18.6 14.8,16.5C14.8,15.38 14.4,14.5 13.25,14.13C13.02,14.05 12.87,13.95 12.81,13.4H13.5A1.5,1.5 0 0,0 15,11.5A1.5,1.5 0 0,0 13.5,10A1.5,1.5 0 0,0 12,11.5H10.2C10.2,10 11.23,9 12.5,9A2.5,2.5 0 0,1 15,11.5A2.5,2.5 0 0,1 12.5,14H11.1C10.75,14 10.5,14.25 10.5,14.6V16.5A1.5,1.5 0 0,1 9,18A1.5,1.5 0 0,1 7.5,16.5C7.5,15.6 8,14.88 8.7,14.6L8.07,12.9C7.6,13.29 7.3,14.03 7.3,14.8A2.7,2.7 0 0,0 10,17.5A2.7,2.7 0 0,0 12.7,14.8V14H12C11.45,14 11,13.55 11,13V12.5A0.5,0.5 0 0,0 10.5,12H9.5A0.5,0.5 0 0,0 9,12.5C9,13.6 8.1,14.5 7,14.5C5.9,14.5 5,13.6 5,12.5A2,2 0 0,1 7,10.5A2,2 0 0,1 9,12.5H10.8C10.8,11.2 9.8,10 8.5,10A2.5,2.5 0 0,0 6,12.5A2.5,2.5 0 0,0 8.5,15A1.5,1.5 0 0,0 10,13.5A1.5,1.5 0 0,0 8.5,12A1.5,1.5 0 0,0 7,13.5C7,12.95 7.45,12.5 8,12.5C8.55,12.5 9,12.95 9,13.5H10.5A2.5,2.5 0 0,1 8,11A2.5,2.5 0 0,1 10.5,13.5A2.5,2.5 0 0,1 8,16A2.5,2.5 0 0,1 5.5,13.5C5.5,12.12 6.62,11 8,11A2,2 0 0,1 10,13V12.5A0.5,0.5 0 0,1 10.5,12H11.5A0.5,0.5 0 0,1 12,12.5V13A2.5,2.5 0 0,1 9.5,15.5A2.5,2.5 0 0,1 7,13H5.5A2,2 0 0,1 7.5,15A2,2 0 0,1 5.5,17A2,2 0 0,1 3.5,15A1.5,1.5 0 0,1 5,16.5A1.5,1.5 0 0,1 3.5,15A0.5,0.5 0 0,1 4,14.5H4.5A0.5,0.5 0 0,1 5,15A1,1 0 0,0 4,14A1,1 0 0,0 3,15A1.5,1.5 0 0,0 4.5,16.5A1.5,1.5 0 0,0 6,15A1,1 0 0,1 7,16A1,1 0 0,1 6,17A1.5,1.5 0 0,0 7.5,18.5A1.5,1.5 0 0,0 6,17A0.5,0.5 0 0,1 5.5,16.5H5A0.5,0.5 0 0,1 4.5,16H4A0.5,0.5 0 0,0 3.5,15.5V16A1.5,1.5 0 0,0 5,17.5A1.5,1.5 0 0,0 6.5,16A0.5,0.5 0 0,1 7,15.5H7.5A0.5,0.5 0 0,1 8,16A1.5,1.5 0 0,1 6.5,17.5A1.5,1.5 0 0,1 5,16A1,1 0 0,0 6,15A1,1 0 0,0 5,14V12C5,10.9 5.9,10 7,10C8.1,10 9,10.9 9,12H10.5A1.5,1.5 0 0,1 12,13.5A1.5,1.5 0 0,1 10.5,15H10A2,2 0 0,0 12,17A2,2 0 0,0 10,15A2,2 0 0,1 12,13A2,2 0 0,1 10,11A2,2 0 0,1 8,13V12.5A0.5,0.5 0 0,0 7.5,12H7A0.5,0.5 0 0,0 6.5,12.5V13A1.5,1.5 0 0,1 5,14.5A1.5,1.5 0 0,1 3.5,13A1,1 0 0,1 4.5,12A1,1 0 0,1 5.5,13A0.5,0.5 0 0,0 6,13.5V14A1.5,1.5 0 0,1 4.5,15.5A1.5,1.5 0 0,1 3,14A0.5,0.5 0 0,1 3.5,13.5H4A0.5,0.5 0 0,1 4.5,14V13.5A1,1 0 0,0 3.5,12.5A1,1 0 0,0 2.5,13.5V15A1,1 0 0,0 3.5,16A0.5,0.5 0 0,0 3,15.5V15A0.5,0.5 0 0,1 3.5,14.5H4.5A0.5,0.5 0 0,1 5,15V16A1.5,1.5 0 0,0 3.5,17.5A1.5,1.5 0 0,0 5,16V17A2,2 0 0,1 3,15A2,2 0 0,1 5,13A2,2 0 0,1 7,15H6V14A1,1 0 0,1 5,13A1,1 0 0,1 6,12V11A2,2 0 0,0 4,13V14.5A1.5,1.5 0 0,0 5.5,16A1.5,1.5 0 0,0 7,14.5V14A1,1 0 0,0 6,13A1,1 0 0,0 5,14V15.5A1.5,1.5 0 0,1 3.5,17A1.5,1.5 0 0,1 2,15.5A1,1 0 0,1 3,14.5A1,1 0 0,1 4,15.5A0.5,0.5 0 0,0 4.5,16H5.5A0.5,0.5 0 0,0 6,15.5V15A1.5,1.5 0 0,0 4.5,13.5A1.5,1.5 0 0,0 3,15Z"/>
</svg>